<svg width="20" height="19" viewBox="0 0 20 19" fill="none" xmlns="http://www.w3.org/2000/svg">
<path d="M0.528132 18.4977C1.23205 19.1668 2.37429 19.1668 3.07821 18.4977L16.3931 5.85904V11.6409C16.3931 12.5867 17.2007 13.3533 18.1962 13.3533C19.1916 13.3533 20 12.5867 20 11.6409V1.7268C20 1.2501 19.7919 0.821868 19.4601 0.512023C19.1334 0.197793 18.6822 0.000486004 18.1803 0.000486004L7.73593 -0.000488281C6.73946 -0.000488281 5.93289 0.766086 5.93289 1.71194C5.93289 2.65682 6.73972 3.4234 7.73593 3.4234H13.8587L0.528132 16.0771C-0.176044 16.7463 -0.176044 17.8293 0.528132 18.4977Z" fill="black"/>
</svg>
